<?xml version="1.0" encoding="UTF-8"?>
<svg enable-background="new 0 0 496 496" version="1.1" viewBox="0 0 496 496" xml:space="preserve" xmlns="http://www.w3.org/2000/svg">
	<path d="m248 0c-136.97 0-248 111.03-248 248s111.03 248 248 248 248-111.03 248-248c-0.159-136.9-111.1-247.84-248-248zm0 480c-128.13 0-232-103.87-232-232s103.87-232 232-232 232 103.87 232 232c-0.141 128.07-103.93 231.86-232 232z"/>
	<path d="m361.14 134.86c-3.124-3.123-8.188-3.123-11.312 0l-101.82 101.82-101.82-101.82c-3.069-3.178-8.134-3.266-11.312-0.197s-3.266 8.134-0.197 11.312c0.064 0.067 0.13 0.132 0.197 0.197l101.82 101.82-101.82 101.82c-3.178 3.07-3.266 8.134-0.196 11.312s8.134 3.266 11.312 0.196c0.067-0.064 0.132-0.13 0.196-0.196l101.82-101.82 101.82 101.82c3.178 3.07 8.242 2.982 11.312-0.196 2.995-3.1 2.995-8.016 0-11.116l-101.82-101.82 101.82-101.82c3.123-3.124 3.123-8.188 0-11.312z"/>
</svg>
